<svg width="473" height="145" viewBox="0 0 473 145" fill="none" xmlns="http://www.w3.org/2000/svg">
<path d="M104.66 20.764C106.944 24.244 108.467 29.1856 109.228 35.5888C110.059 41.9224 110.094 49.1608 109.332 57.304C108.571 65.0992 107.186 72.6508 105.179 79.9588C103.241 87.2668 100.887 93.5308 98.1187 98.7508C92.858 108.425 86.9397 113.262 80.3639 113.262C76.9029 113.262 73.9611 111.592 71.5384 108.251C69.6695 105.676 68.0428 102.057 66.6584 97.3936C65.0664 91.8256 63.4743 82.4992 61.8823 69.4144C61.0516 63.2896 60.4287 59.0788 60.0134 56.782C59.7365 54.9724 59.425 53.5456 59.0789 52.5016C58.7328 52.9192 58.4213 53.476 58.1444 54.172C56.9677 56.3992 54.9257 62.6284 52.0185 72.8596C47.3808 89.2852 43.4353 101.013 40.182 108.042C37.4824 113.889 34.679 118.308 31.7718 121.301C28.5185 124.712 25.0575 126.417 21.3889 126.417C20.8351 126.417 20.2813 126.382 19.7276 126.312C16.059 125.756 13.0133 123.354 10.5906 119.109C7.82183 114.446 5.84908 107.451 4.67235 98.1244C3.63405 89.9812 3.21874 80.7244 3.4264 70.354C3.70327 60.6796 4.46469 51.4576 5.71064 42.688C7.02581 33.9184 8.58325 27.2368 10.383 22.6432C10.6598 21.9472 11.1444 21.46 11.8366 21.1816C12.5288 20.8336 13.221 20.7988 13.9132 21.0772C14.6746 21.3556 15.1937 21.8428 15.4706 22.5388C15.7475 23.2348 15.7475 23.9656 15.4706 24.7312C13.7401 29.0464 12.2865 35.4148 11.1098 43.8364C9.93303 52.258 9.20623 61.1668 8.92935 70.5628C8.72169 81.2116 9.17162 90.5032 10.2791 98.4376C11.3866 106.442 13.0825 112.427 15.3668 116.394C16.8896 119.039 18.5855 120.501 20.4544 120.779C25.369 121.475 30.2836 116.464 35.1982 105.746C38.313 98.9944 42.1893 87.5104 46.827 71.2936C49.8035 60.784 51.9147 54.2416 53.1606 51.6664C55.3064 47.3512 57.5907 45.4024 60.0134 45.82C61.3977 46.0984 62.4706 46.9336 63.2321 48.3256C63.9935 49.7176 64.6511 51.7012 65.2048 54.2764C65.6894 56.8516 66.3815 61.6888 67.2814 68.788C68.8734 81.5248 70.4309 90.538 71.9537 95.8276C74.238 103.832 77.0414 107.834 80.3639 107.834C84.7939 107.834 89.0855 103.936 93.2387 96.1408C96.8381 89.32 99.6415 80.968 101.649 71.0848C103.725 61.2016 104.625 51.8404 104.348 43.0012C104.141 34.162 102.722 27.7936 100.091 23.896C98.4994 21.46 96.5612 20.3464 94.277 20.5552C93.7233 20.6248 93.2387 20.5552 92.8234 20.3464C92.4081 20.1376 92.0274 19.8244 91.6813 19.4068C91.4044 18.9892 91.266 18.5368 91.266 18.0496C91.1967 17.284 91.4044 16.6228 91.8889 16.066C92.3735 15.4396 92.9964 15.0916 93.7579 15.022C98.2571 14.674 101.891 16.588 104.66 20.764ZM150.345 77.5576C150.968 77.2096 151.591 77.14 152.214 77.3488C152.837 77.488 153.321 77.8708 153.667 78.4972C154.013 79.054 154.083 79.6456 153.875 80.272C153.252 82.7776 152.145 84.97 150.552 86.8492C149.03 88.7284 147.334 90.1204 145.465 91.0252C143.665 91.93 141.831 92.3824 139.962 92.3824C139.477 92.3824 138.993 92.3476 138.508 92.278C135.047 91.7212 132.694 89.7028 131.448 86.2228C131.102 86.5708 130.756 86.9188 130.41 87.2668C126.464 91.3036 122.761 93.322 119.3 93.322C119.231 93.322 119.196 93.322 119.196 93.322C117.189 93.322 115.458 92.5216 114.005 90.9208C112.551 89.2504 111.963 87.3364 112.239 85.1788C112.586 82.3252 113.832 79.8196 115.977 77.662C118.123 75.5044 120.442 73.9384 122.934 72.964C125.426 71.9896 127.848 71.4676 130.202 71.398C132.071 71.398 133.663 71.8852 134.978 72.8596C136.362 73.7644 137.228 75.0172 137.574 76.618C137.712 77.314 137.574 77.9404 137.159 78.4972C136.812 79.054 136.328 79.402 135.705 79.5412C135.566 79.5412 135.428 79.5412 135.29 79.5412C135.359 79.8196 135.393 80.1328 135.393 80.4808C135.186 84.7264 136.466 87.0928 139.235 87.58C141.035 87.8584 142.938 87.2668 144.946 85.8052C147.092 84.1348 148.545 81.8728 149.307 79.0192C149.445 78.3928 149.791 77.9056 150.345 77.5576ZM131.033 79.0192C131.517 78.3232 132.175 77.9752 133.005 77.9752C132.936 77.836 132.902 77.7316 132.902 77.662C132.694 76.6876 131.898 76.2004 130.513 76.2004C130.444 76.2004 130.375 76.2004 130.306 76.2004C127.468 76.27 124.63 77.2096 121.792 79.0192C118.954 80.7592 117.327 83.0212 116.912 85.8052C116.843 86.5012 117.05 87.1276 117.535 87.6844C118.089 88.3108 118.642 88.5892 119.196 88.5196C121.134 88.5196 123.245 87.4408 125.53 85.2832C127.883 83.056 129.717 80.968 131.033 79.0192ZM197.887 77.4532C198.51 77.662 198.926 78.0796 199.133 78.706C199.41 79.3324 199.445 79.9588 199.237 80.5852C199.03 81.2116 198.614 81.6292 197.991 81.838C197.576 82.0468 196.953 82.3252 196.122 82.6732C188.508 86.014 182.832 89.0764 179.094 91.8604C179.094 96.3148 178.852 100.943 178.367 105.746C178.021 109.017 177.537 112.288 176.914 115.559C176.36 118.83 175.287 122.763 173.695 127.356C172.172 132.02 170.373 135.674 168.296 138.318C165.458 141.938 162.239 143.747 158.64 143.747C157.602 143.747 156.529 143.573 155.421 143.225C152.168 142.251 149.953 139.919 148.776 136.23C147.599 132.542 147.703 128.157 149.088 123.076C150.61 117.786 153.31 112.601 157.186 107.52C163.139 99.7948 168.815 93.7744 174.214 89.4592C174.007 84.448 173.453 81.1072 172.553 79.4368C172.415 79.2976 172.311 79.1584 172.242 79.0192C171.826 79.228 171.203 79.6804 170.373 80.3764C169.611 81.142 168.4 82.534 166.739 84.5524C165.147 86.4316 163.901 87.8584 163.001 88.8328C162.101 89.8072 160.89 90.7816 159.367 91.756C157.913 92.7304 156.529 93.2176 155.214 93.2176C152.791 93.2872 150.991 92.4172 149.814 90.6076C148.776 88.9372 148.534 86.6056 149.088 83.6128C149.503 81.2464 150.368 78.7408 151.683 76.096C151.96 75.5392 152.41 75.1564 153.033 74.9476C153.656 74.7388 154.244 74.7736 154.798 75.052C155.421 75.3304 155.837 75.7828 156.044 76.4092C156.252 77.0356 156.217 77.662 155.94 78.2884C154.833 80.5156 154.106 82.6036 153.76 84.5524C153.414 86.4316 153.448 87.6148 153.864 88.102C154.071 88.3804 154.487 88.5196 155.11 88.5196C156.494 88.45 159.159 86.0836 163.105 81.4204C164.558 79.6804 165.666 78.3928 166.427 77.5576C167.258 76.7224 168.261 75.9568 169.438 75.2608C170.615 74.4952 171.722 74.1472 172.761 74.2168C174.353 74.356 175.668 75.3304 176.706 77.14C177.745 78.9496 178.437 81.9772 178.783 86.2228C182.175 83.926 187.331 81.2812 194.253 78.2884C195.153 77.9404 195.742 77.662 196.018 77.4532C196.641 77.2444 197.264 77.2444 197.887 77.4532ZM173.591 105.328C174.007 101.987 174.249 98.7856 174.318 95.7232C170.096 99.412 165.666 104.319 161.028 110.444C157.982 114.341 155.663 118.552 154.071 123.076C152.479 127.6 152.202 131.498 153.241 134.769C153.933 136.857 155.144 138.144 156.875 138.632C159.644 139.467 162.205 138.388 164.558 135.395C166.704 132.681 168.573 128.644 170.165 123.285C171.757 117.995 172.899 112.01 173.591 105.328ZM229.916 79.228C229.916 79.5064 229.882 79.8196 229.812 80.1676C229.743 80.446 229.605 80.7244 229.397 81.0028C229.259 81.2116 229.051 81.4204 228.774 81.6292C228.497 81.7684 228.22 81.8728 227.943 81.9424C223.721 82.5688 218.46 84.1348 212.161 86.6404C212.577 87.3364 212.888 88.102 213.096 88.9372C213.65 91.6516 212.023 94.2268 208.216 96.6628C205.655 98.2636 202.747 99.4816 199.494 100.317C197.902 100.665 196.483 100.839 195.237 100.839C193.576 100.839 192.295 100.491 191.395 99.7948C190.011 98.7508 189.561 97.324 190.046 95.5144C190.599 93.6352 192.468 91.6168 195.652 89.4592C197.383 88.3456 199.529 87.1624 202.09 85.9096C200.013 85.144 198.49 84.4132 197.521 83.7172C195.445 82.186 194.683 80.2024 195.237 77.7664C195.722 75.4 197.971 72.9292 201.986 70.354C202.54 70.006 203.128 69.9016 203.751 70.0408C204.443 70.18 204.962 70.528 205.309 71.0848C205.655 71.6416 205.758 72.2332 205.62 72.8596C205.482 73.486 205.136 74.008 204.582 74.4256C201.675 76.2352 200.117 77.662 199.909 78.706C199.84 78.9844 199.84 79.228 199.909 79.4368C199.979 79.576 200.359 79.8544 201.052 80.272C201.744 80.62 202.817 81.0724 204.27 81.6292C206.001 82.186 207.281 82.6732 208.112 83.0908C215.518 80.0284 221.852 78.0796 227.113 77.2444C227.805 77.1052 228.393 77.2444 228.878 77.662C229.432 78.01 229.778 78.532 229.916 79.228ZM206.762 91.756C207.939 90.8512 208.493 90.2248 208.423 89.8768C208.354 89.3896 208.077 88.9372 207.593 88.5196C207.524 88.5892 207.454 88.624 207.385 88.624C203.924 90.2248 201.19 91.6516 199.183 92.9044C197.245 94.1572 195.895 95.2012 195.133 96.0364C196.587 96.0364 198.49 95.6536 200.844 94.888C203.197 94.1224 205.17 93.0784 206.762 91.756Z" fill="black"/>
<path d="M309.884 77.2444C310.646 77.1052 311.338 77.2444 311.961 77.662C312.584 78.0796 312.964 78.6712 313.103 79.4368C313.241 80.1328 313.103 80.794 312.688 81.4204C307.981 88.45 301.509 93.9136 293.272 97.8112C289.326 107.207 281.47 114.654 269.702 120.153C259.112 125.164 247.587 127.67 235.127 127.67C231.943 127.67 228.828 127.461 225.783 127.043C223.083 126.765 220.66 126.173 218.514 125.268C216.369 124.364 214.569 123.215 213.115 121.823C211.662 120.431 210.589 118.865 209.897 117.125C209.204 115.176 209.031 113.193 209.378 111.174C209.724 109.226 210.589 107.52 211.973 106.059C214.05 103.692 217.891 102.161 223.498 101.465C222.46 87.2668 222.771 72.8248 224.433 58.1392C226.094 43.384 228.932 30.4384 232.947 19.3024C233.224 18.6064 233.708 18.1192 234.4 17.8408C235.093 17.4928 235.785 17.458 236.477 17.7364C237.169 17.9452 237.688 18.3976 238.034 19.0936C238.38 19.7896 238.415 20.4856 238.138 21.1816C233.639 33.7096 230.662 48.43 229.209 65.3428C230.109 62.002 231.112 58.696 232.22 55.4248C233.327 52.1536 234.504 49.0216 235.75 46.0288C236.996 43.036 238.277 40.1824 239.592 37.468C240.976 34.684 242.395 32.074 243.849 29.638C245.372 27.202 246.929 25.0096 248.521 23.0608C255.028 14.6392 261.707 10.0456 268.56 9.27998C274.375 8.65358 278.77 9.90638 281.746 13.0384C285.138 16.588 286.28 22.156 285.173 29.7424C284.481 34.1272 282.75 38.7556 279.981 43.6276C277.213 48.4996 273.648 53.1976 269.287 57.7216C266.864 60.2968 264.372 62.5588 261.811 64.5076C274.963 64.5772 284.515 67.6744 290.468 73.7992C294.76 78.3232 296.421 83.8912 295.452 90.5032C300.643 87.3016 304.866 83.2648 308.119 78.3928C308.604 77.7664 309.192 77.3836 309.884 77.2444ZM267.314 115.142C275.274 111.453 281.262 106.755 285.277 101.048C280.847 102.44 275.759 103.518 270.014 104.284C264.269 105.119 259.596 105.606 255.997 105.746C252.397 105.885 247.517 106.024 241.357 106.163C235.958 106.233 232.047 106.337 229.624 106.476C229.763 109.191 230.005 111.766 230.351 114.202C230.489 114.968 230.316 115.629 229.832 116.186C229.417 116.812 228.828 117.195 228.067 117.334C227.582 117.404 227.098 117.334 226.613 117.125C226.198 116.986 225.817 116.708 225.471 116.29C225.194 115.942 225.021 115.524 224.952 115.037C224.537 112.392 224.19 109.713 223.914 106.998C219.83 107.555 217.165 108.495 215.919 109.817C214.604 111.279 214.327 113.054 215.088 115.142C216.403 118.691 220.176 120.849 226.405 121.614C233.327 122.38 240.353 122.206 247.483 121.092C254.612 119.979 261.223 117.995 267.314 115.142ZM289.845 90.2944C290.814 85.2136 289.672 81.0028 286.419 77.662C283.304 74.4604 278.562 72.268 272.194 71.0848C265.895 69.832 258.627 69.7276 250.39 70.7716C249.49 70.9804 248.625 71.0848 247.794 71.0848C247.31 71.0848 246.86 70.9804 246.445 70.7716C246.098 70.5628 245.787 70.2844 245.51 69.9364C245.233 69.5188 245.095 69.0664 245.095 68.5792C245.026 67.8136 245.199 67.1524 245.614 66.5956C246.098 66.0388 246.687 65.7256 247.379 65.656C248.071 65.5168 248.729 65.4124 249.352 65.3428C250.598 64.9948 252.017 64.3684 253.609 63.4636C255.27 62.4892 257.139 61.1668 259.216 59.4964C261.292 57.826 263.334 55.9468 265.341 53.8588C267.349 51.8404 269.149 49.7524 270.741 47.5948C272.402 45.4372 273.821 43.3144 274.998 41.2264C276.244 39.0688 277.247 36.946 278.009 34.858C278.839 32.77 279.393 30.7864 279.67 28.9072C280.57 23.1304 279.947 19.1284 277.801 16.9012C276.417 15.4396 274.271 14.7088 271.364 14.7088C270.671 14.7088 269.945 14.7436 269.183 14.8132C263.853 15.37 258.385 19.2328 252.778 26.4016C250.355 29.6032 247.967 33.3616 245.614 37.6768C243.33 41.992 241.218 46.69 239.28 51.7708C237.411 56.8516 235.75 62.1412 234.297 67.6396C231.251 79.402 229.659 90.5032 229.52 100.943C231.874 100.804 235.819 100.7 241.357 100.63C246.618 100.56 250.736 100.456 253.713 100.317C256.758 100.178 260.635 99.8644 265.341 99.3772C270.118 98.89 274.409 98.194 278.216 97.2892C282.093 96.3148 285.692 95.1316 289.015 93.7396C289.361 92.626 289.638 91.4776 289.845 90.2944ZM336.759 76.8268C337.451 76.7572 338.039 76.966 338.524 77.4532C339.008 77.8708 339.251 78.4276 339.251 79.1236C339.32 79.75 339.112 80.3068 338.628 80.794C331.498 88.7284 324.507 92.8 317.654 93.0088C317.446 93.0088 317.239 93.0088 317.031 93.0088C313.086 93.0088 310.005 91.756 307.79 89.2504C305.645 86.8144 304.883 83.752 305.506 80.0632C305.921 77.488 306.96 75.0172 308.621 72.6508C310.628 69.7276 312.843 68.266 315.266 68.266C317.481 68.266 319.073 69.2404 320.042 71.1892C320.665 72.5116 320.838 73.8688 320.561 75.2608C320.354 76.6528 319.869 77.8708 319.108 78.9148C317.17 81.6292 314.193 83.1952 310.178 83.6128C310.386 84.5872 310.767 85.4224 311.321 86.1184C312.705 87.6496 314.747 88.3804 317.446 88.3108C322.984 88.102 328.868 84.5176 335.097 77.5576C335.582 77.0704 336.136 76.8268 336.759 76.8268ZM315.266 73.0684C314.643 73.0684 313.882 73.6252 312.982 74.7388C312.082 75.8524 311.355 77.1748 310.801 78.706C312.878 78.2188 314.366 77.3488 315.266 76.096C315.612 75.6784 315.82 75.1912 315.889 74.6344C315.958 74.008 315.924 73.5556 315.785 73.2772C315.716 73.138 315.543 73.0684 315.266 73.0684Z" fill="black"/>
<path d="M436.256 76.0902C436.951 76.0531 437.531 76.2891 437.992 76.7984C438.457 77.238 438.708 77.8073 438.742 78.5056C438.783 79.1346 438.586 79.6827 438.148 80.1502C437.932 80.3488 437.603 80.6821 437.167 81.1492C435.996 82.4882 435.013 83.522 434.217 84.2514C433.49 84.9836 432.512 85.8786 431.287 86.9359C430.061 87.9239 428.815 88.6669 427.546 89.1648C426.346 89.5967 425.126 89.7834 423.88 89.7251C423.257 89.6961 422.64 89.5975 422.023 89.4293C421.134 89.1788 420.353 88.8287 419.681 88.3792C419.078 87.9329 418.579 87.4915 418.184 87.0551C417.861 86.5522 417.541 85.945 417.229 85.2336C416.984 84.5254 416.8 83.9941 416.678 83.6401C416.56 83.2167 416.448 82.6538 416.341 81.9523C416.055 80.6151 415.753 79.6604 415.432 79.0879C415.182 78.5187 414.683 78.0773 413.936 77.7638C412.915 77.3676 411.585 77.6539 409.947 78.6222C408.378 79.594 407.083 80.5788 406.068 81.5764C405.122 82.5772 403.916 83.9144 402.451 85.5877C401.286 86.857 400.446 87.7583 399.936 88.2919C399.425 88.8255 398.814 89.3194 398.102 89.7738C397.458 90.1619 396.827 90.3414 396.204 90.3124C396.135 90.3089 396.1 90.3074 396.1 90.3074C395.203 90.2654 394.491 89.9186 393.966 89.2669C391.93 86.8724 392.045 82.1051 394.318 74.965C394.554 74.349 394.955 73.9149 395.52 73.6626C396.088 73.341 396.68 73.2989 397.294 73.5365C397.978 73.7078 398.445 74.0782 398.696 74.6474C399.016 75.2196 399.056 75.8486 398.817 76.5342C397.767 79.7599 397.233 82.3127 397.216 84.1934C397.58 83.7923 398.128 83.1908 398.857 82.3887C401.851 79.1146 404.21 76.821 405.932 75.5082C409.517 72.8889 412.773 72.1703 415.698 73.352C416.924 73.8273 417.93 74.5712 418.715 75.5833C419.499 76.5954 420.012 77.4558 420.258 78.164C420.503 78.8722 420.736 79.8237 420.958 81.0185C421.241 82.3556 421.512 83.2738 421.766 83.7735C422.089 84.2763 422.594 84.6136 423.277 84.785C424.301 85.1115 425.492 84.8534 426.848 84.0113C428.273 83.172 429.383 82.353 430.182 81.5544C431.056 80.6893 432.218 79.4896 433.675 77.9552C434.116 77.4184 434.445 77.0507 434.661 76.8517C435.099 76.3845 435.63 76.1305 436.256 76.0902ZM469.075 79.7149C469.06 79.993 469.011 80.3045 468.928 80.6487C468.844 80.9236 468.694 81.1954 468.475 81.4636C468.325 81.6657 468.109 81.8647 467.823 82.0601C467.54 82.1863 467.258 82.2776 466.978 82.3342C462.732 82.7628 457.405 84.0814 450.997 86.2901C451.378 87.0046 451.654 87.7842 451.825 88.628C452.252 91.3654 450.507 93.8617 446.593 96.1173C443.96 97.5969 441 98.6777 437.71 99.3601C436.103 99.6333 434.678 99.7408 433.435 99.6826C431.774 99.6048 430.511 99.1974 429.646 98.4602C428.31 97.3527 427.927 95.9065 428.495 94.1215C429.135 92.2702 431.093 90.3411 434.376 88.3346C436.155 87.303 438.353 86.2213 440.969 85.0895C438.93 84.2279 437.444 83.4266 436.507 82.6862C434.502 81.0596 433.833 79.0427 434.5 76.6351C435.094 74.2939 437.456 71.9307 441.583 69.5461C442.154 69.2242 442.745 69.1473 443.363 69.3155C444.046 69.4869 444.551 69.8587 444.868 70.4311C445.188 71.0036 445.266 71.5993 445.099 72.2187C444.932 72.8378 444.562 73.343 443.988 73.7345C441 75.4061 439.38 76.7586 439.123 77.7919C439.042 78.0668 439.031 78.3101 439.091 78.5218C439.152 78.6642 439.521 78.96 440.193 79.4095C440.868 79.7894 441.918 80.2914 443.345 80.9158C445.047 81.5526 446.304 82.0993 447.115 82.5552C454.654 79.8419 461.071 78.1912 466.366 77.6025C467.064 77.4958 467.644 77.6623 468.109 78.1022C468.648 78.4757 468.968 79.0134 469.075 79.7149ZM445.367 91.1479C446.584 90.299 447.167 89.6993 447.112 89.3484C447.066 88.8583 446.809 88.3937 446.345 87.9538C446.273 88.0202 446.203 88.0515 446.134 88.0483C442.601 89.4859 439.806 90.7833 437.741 91.941C435.748 93.1019 434.352 94.0818 433.554 94.8804C435.004 94.9483 436.922 94.6548 439.31 94C441.696 93.3452 443.714 92.3946 445.367 91.1479Z" fill="black"/>
<path d="M393.155 59.7806C393.138 59.7649 393.121 59.7504 393.106 59.7351C393.103 59.7333 393.103 59.7319 393.101 59.7304C384.915 51.9465 369.932 54.2935 359.255 64.541C357.663 66.0701 356.224 67.7188 354.966 69.4521C348.592 68.5453 342.983 70.0686 339.129 73.7667C339.115 73.7812 339.101 73.7963 339.083 73.8111C339.08 73.814 339.078 73.8169 339.075 73.8201C331.354 81.3143 333.802 96.4079 344.387 106.565C355.102 116.849 370.849 119.011 378.559 111.611C378.567 111.602 378.576 111.592 378.585 111.583C378.59 111.578 378.596 111.573 378.602 111.568C382.423 107.872 383.995 102.505 383.052 96.4111C384.861 95.2024 386.577 93.8225 388.172 92.2931C398.903 81.9923 401.303 67.6022 393.155 59.7806ZM361.885 67.064C370.151 59.129 381.033 56.6179 387.961 60.425L387.877 60.4525C383.75 61.8007 380.099 64.1286 377.316 67.1843C374.668 70.0898 372.805 73.6574 371.899 77.5332C367.98 74.1286 363.503 71.6422 358.915 70.3079C359.82 69.1766 360.813 68.0911 361.885 67.064ZM347.015 104.042C339.222 96.5619 336.133 85.6791 339.83 78.8394C342.689 86.8834 349.856 92.9059 358.543 94.5583C366.024 95.9813 372.15 101.185 374.53 108.139L375.098 109.8C368.533 114.857 355.765 112.441 347.015 104.042ZM377.898 106.574C374.991 98.6255 367.896 92.7002 359.264 91.0583C351.875 89.6523 345.775 84.5269 343.349 77.682L342.596 75.5612C349.42 70.1748 361.787 72.8083 370.671 81.3354C374.974 85.463 378.319 90.8167 379.314 96.55C379.981 100.386 379.479 103.841 377.898 106.574ZM382.161 92.6193C380.817 88.3642 378.351 84.207 374.985 80.5376C375.15 79.9704 375.294 79.3968 375.412 78.8214C376.895 71.6477 381.873 66.1832 389.074 63.8299L391.286 63.1075C396.882 69.5901 394.496 81.1745 385.541 89.7704C384.471 90.7976 383.341 91.7505 382.161 92.6193Z" fill="black"/>
</svg>
