<svg width="352" height="159" viewBox="0 0 352 159" fill="none" xmlns="http://www.w3.org/2000/svg">
<g clip-path="url(#clip0_2_112)">
<path d="M90.826 60.0066C120.128 60.0066 149.408 55.4478 179.073 46.3351C228.989 30.9958 291.995 31.0008 343.487 46.3547C346.03 47.108 349.439 46.7878 351.101 45.6308C352.766 44.4741 352.055 42.9211 349.514 42.1629C294.245 25.6887 226.58 25.6962 172.917 42.1825C117.724 59.1408 63.9624 59.1433 8.57021 42.18C6.04846 41.4071 2.63241 41.7154 0.935111 42.8625C-0.759439 44.0092 -0.0878886 45.5647 2.43111 46.3376C32.1977 55.4503 61.5209 60.0066 90.826 60.0066Z" fill="#613D2B"/>
<path d="M349.513 76.7521C294.239 60.2779 226.574 60.2854 172.917 76.7717C117.718 93.735 63.9565 93.7325 8.56983 76.7692C6.04808 75.9963 2.63203 76.3021 0.937483 77.4517C-0.759817 78.5987 -0.0882669 80.1542 2.43073 80.9268C32.1945 90.0395 61.5156 94.5983 90.8201 94.5983C120.122 94.5958 149.403 90.0395 179.073 80.9246C228.983 65.5828 291.989 65.5925 343.487 80.944C346.03 81.6972 349.441 81.377 351.103 80.22C352.765 79.0633 352.054 77.5103 349.513 76.7521Z" fill="#613D2B"/>
<path d="M349.513 111.341C294.239 94.8721 226.577 94.8795 172.917 111.361C117.729 128.324 63.9724 128.329 8.56983 111.358C6.04808 110.586 2.63203 110.894 0.937483 112.041C-0.759817 113.188 -0.0882669 114.743 2.43073 115.516C32.1973 124.631 61.5233 129.19 90.8256 129.188C120.127 129.188 149.408 124.629 179.07 115.514C228.989 100.177 291.989 100.182 343.487 115.533C346.03 116.286 349.441 115.966 351.103 114.809C352.765 113.652 352.054 112.099 349.513 111.341Z" fill="#613D2B"/>
</g>
<defs>
<clipPath id="clip0_2_112">
<rect width="352" height="159" fill="white"/>
</clipPath>
</defs>
</svg>
