<svg width="40" height="39" viewBox="0 0 40 39" fill="none" xmlns="http://www.w3.org/2000/svg">
<path d="M36.938 2.92843C36.9278 2.91873 36.9173 2.90956 36.9071 2.89987C36.9061 2.8989 36.9051 2.89793 36.904 2.89696C31.7434 -1.98317 22.2983 -0.511746 15.5677 5.91303C14.5633 6.87183 13.6568 7.9055 12.863 8.99219C8.84504 8.42364 5.30855 9.37871 2.87964 11.6973C2.87011 11.7064 2.86112 11.7159 2.85167 11.725C2.8498 11.7269 2.84784 11.7287 2.84605 11.7306C-2.02138 16.4292 -0.477476 25.8923 6.19386 32.2603C12.9489 38.7084 22.8755 40.0634 27.736 35.4239C27.7419 35.4182 27.7477 35.4123 27.7536 35.4065C27.7567 35.4034 27.7599 35.4004 27.763 35.3973C30.172 33.0796 31.1634 29.7151 30.57 25.8942C31.7084 25.1365 32.7913 24.2714 33.7958 23.3125C40.5614 16.8543 42.0754 7.83234 36.938 2.92843ZM17.2248 7.49482C22.4365 2.51999 29.2956 0.945505 33.6642 3.33247L33.6113 3.3497C31.01 4.19507 28.7072 5.65448 26.9519 7.57036C25.283 9.39191 24.1083 11.6287 23.5378 14.0587C21.0677 11.9242 18.2449 10.3652 15.3533 9.52875C15.9241 8.81948 16.55 8.13891 17.2248 7.49482ZM7.8509 30.6785C2.938 25.9889 0.990808 19.1658 3.32269 14.8776C5.12324 19.9208 9.64246 23.6968 15.1179 24.7326C19.8339 25.6248 23.6959 28.8873 25.1969 33.2472L25.5555 34.2887C21.4158 37.459 13.3671 35.9441 7.8509 30.6785ZM27.3202 32.2659C25.4878 27.2827 21.0151 23.5678 15.5733 22.5383C10.9147 21.6569 7.06988 18.4435 5.53925 14.152L5.06503 12.8223C9.36707 9.44515 17.1638 11.0964 22.7646 16.4426C25.4755 19.0303 27.5852 22.3869 28.2128 25.9813C28.6327 28.3864 28.3156 30.5525 27.3202 32.2659ZM30.0077 23.5171C29.1607 20.8492 27.6062 18.2428 25.4839 15.9423C25.5867 15.5867 25.6777 15.227 25.7526 14.8664C26.6866 10.3686 29.8261 6.94275 34.3664 5.4673L35.7606 5.01426C39.2872 9.07877 37.7844 16.3416 32.1385 21.7308C31.4638 22.3748 30.7507 22.9723 30.0077 23.5171Z" fill="#613D2B"/>
</svg>
